<?xml version="1.0" encoding="UTF-8" standalone="no"?>
<svg
   xmlns:dc="http://purl.org/dc/elements/1.1/"
   xmlns:cc="http://creativecommons.org/ns#"
   xmlns:rdf="http://www.w3.org/1999/02/22-rdf-syntax-ns#"
   xmlns:svg="http://www.w3.org/2000/svg"
   xmlns="http://www.w3.org/2000/svg"
   xmlns:xlink="http://www.w3.org/1999/xlink"
   xmlns:sodipodi="http://sodipodi.sourceforge.net/DTD/sodipodi-0.dtd"
   xmlns:inkscape="http://www.inkscape.org/namespaces/inkscape"
   width="85.599998mm"
   height="53.98mm"
   viewBox="0 0 85.599998 53.98"
   version="1.1"
   id="svg8"
   inkscape:version="1.0.2 (e86c870879, 2021-01-15)"
   sodipodi:docname="vanilla.svg"
   inkscape:export-filename="/home/user/git/xmrdotgift/xmrdotgift.github.io/static/themes/vanilla-front.png"
   inkscape:export-xdpi="96"
   inkscape:export-ydpi="96">
  <defs
     id="defs2">
    <rect
       x="3.4647817"
       y="19.84375"
       width="42.242088"
       height="13.870498"
       id="rect1039" />
  </defs>
  <sodipodi:namedview
     id="base"
     pagecolor="#ffffff"
     bordercolor="#666666"
     borderopacity="1.0"
     inkscape:pageopacity="0.0"
     inkscape:pageshadow="2"
     inkscape:zoom="1.68"
     inkscape:cx="210.42042"
     inkscape:cy="110.85767"
     inkscape:document-units="mm"
     inkscape:current-layer="layer2"
     inkscape:document-rotation="0"
     showgrid="true"
     inkscape:snap-page="false"
     showborder="true"
     inkscape:showpageshadow="false"
     inkscape:pagecheckerboard="false"
     showguides="true"
     borderlayer="false"
     inkscape:snap-grids="true"
     inkscape:window-width="1920"
     inkscape:window-height="1035"
     inkscape:window-x="1"
     inkscape:window-y="45"
     inkscape:window-maximized="0">
    <inkscape:grid
       type="xygrid"
       id="grid1071"
       dotted="false"
       snapvisiblegridlinesonly="false"
       visible="false" />
  </sodipodi:namedview>
  <metadata
     id="metadata5">
    <rdf:RDF>
      <cc:Work
         rdf:about="">
        <dc:format>image/svg+xml</dc:format>
        <dc:type
           rdf:resource="http://purl.org/dc/dcmitype/StillImage" />
        <dc:title />
      </cc:Work>
    </rdf:RDF>
  </metadata>
  <g
     inkscape:groupmode="layer"
     id="layer3"
     inkscape:label="background"
     sodipodi:insensitive="true">
    <rect
       style="fill:#f9f9f9;fill-opacity:1;stroke-width:0.309962"
       id="rect878"
       width="85.599998"
       height="53.98"
       x="-6.605827e-15"
       y="9.4368957e-16"
       rx="3.1800001"
       ry="3.1800001" />
  </g>
  <g
     inkscape:groupmode="layer"
     id="layer4"
     inkscape:label="margin"
     sodipodi:insensitive="true"
     style="display:none">
    <rect
       style="fill:none;fill-opacity:1;stroke:#000000;stroke-width:0.212883;stroke-miterlimit:4;stroke-dasharray:0.212883, 0.212883;stroke-dashoffset:0;stroke-opacity:1"
       id="rect883"
       width="82.38707"
       height="50.767117"
       x="1.606449"
       y="1.6064415"
       rx="2.7971807"
       ry="2.3467882" />
  </g>
  <g
     inkscape:label="front"
     inkscape:groupmode="layer"
     id="layer1"
     style="display:none;opacity:1"
     sodipodi:insensitive="true">
    <path
       d="m 42.799867,11.261957 c -5.391414,0 -9.763918,4.371975 -9.763918,9.763654 0,1.077913 0.174625,2.11455 0.497416,3.084248 h 2.919942 v -8.215048 l 6.34656,6.34656 6.346561,-6.34656 v 8.215048 h 2.920206 c 0.322791,-0.969698 0.497416,-2.006335 0.497416,-3.084248 0,-5.391679 -4.372504,-9.763654 -9.764183,-9.763654"
       id="path22"
       style="fill:#ff6600;stroke-width:0.264583" />
    <path
       d="m 38.571164,20.930546 v 5.169165 h -4.114271 c 1.713971,2.811991 4.809596,4.690004 8.343106,4.690004 3.533511,0 6.6294,-1.878013 8.343107,-4.690004 h -4.114007 v -5.169165 l -4.2291,4.2291 z"
       id="path26"
       style="fill:#4c4c4c;stroke-width:0.264583" />
    <text
       xml:space="preserve"
       style="font-style:normal;font-variant:normal;font-weight:bold;font-stretch:normal;font-size:9.17222px;line-height:1.25;font-family:sans-serif;-inkscape-font-specification:'sans-serif, Bold';font-variant-ligatures:normal;font-variant-caps:normal;font-variant-numeric:normal;font-variant-east-asian:normal;fill:#4c4c4c;fill-opacity:1;stroke:none;stroke-width:0.264583"
       x="15.229589"
       y="45.028931"
       id="text118"><tspan
         sodipodi:role="line"
         id="tspan116"
         x="15.229589"
         y="45.028931"
         style="font-style:normal;font-variant:normal;font-weight:bold;font-stretch:normal;font-size:9.17222px;font-family:sans-serif;-inkscape-font-specification:'sans-serif, Bold';font-variant-ligatures:normal;font-variant-caps:normal;font-variant-numeric:normal;font-variant-east-asian:normal;fill:#4c4c4c;fill-opacity:1;stroke-width:0.264583">GIFT CARD</tspan></text>
  </g>
  <g
     inkscape:groupmode="layer"
     id="layer2"
     inkscape:label="back"
     style="display:inline">
    <path
       d="m 8.2020833,2.38125 c -3.043419,0 -5.511669,2.4679519 -5.511669,5.5115202 0,0.6084736 0.09857,1.1936496 0.280788,1.7410376 h 1.648288 V 4.9964664 l 3.582593,3.5825924 3.5825937,-3.5825924 v 4.6373414 h 1.648438 c 0.182214,-0.547388 0.280788,-1.132564 0.280788,-1.7410376 0,-3.0435683 -2.468251,-5.5115202 -5.5118197,-5.5115202"
       id="path22-5"
       style="fill:#ff6600;stroke-width:0.149356" />
    <path
       d="m 5.8148433,7.8391067 v 2.9179603 h -2.322479 c 0.967525,1.587351 2.714985,2.647476 4.709629,2.647476 1.9946447,0 3.7422547,-1.060125 4.7096317,-2.647476 H 10.589293 V 7.8391067 L 8.2019933,10.226406 Z"
       id="path26-7"
       style="fill:#4c4c4c;stroke-width:0.149356" />
    <path
       d="m 43.361689,9.4619298 c -0.291392,0.300056 -0.644768,0.44956 -1.060275,0.44956 -0.367116,0 -0.691666,-0.115303 -0.975741,-0.347102 -0.365173,-0.295575 -0.547537,-0.698089 -0.547537,-1.207391 0,-0.4559827 0.145174,-0.8328071 0.435521,-1.1285308 0.289301,-0.2967698 0.646859,-0.4441831 1.07297,-0.4441831 0.420735,0 0.778441,0.1517453 1.071926,0.4547871 0.294678,0.3031921 0.441943,0.6738924 0.441943,1.1125508 0,0.439851 -0.14607,0.809208 -0.438807,1.110309 m 0.61191,-2.8283469 C 43.505817,6.1629635 42.94648,5.9269812 42.295141,5.9269812 c -0.429248,0 -0.830566,0.1079841 -1.202014,0.3235045 -0.372791,0.2156691 -0.665379,0.5081077 -0.877763,0.8776133 -0.212533,0.3693568 -0.319173,0.7741099 -0.319173,1.2138128 0,0.656717 0.228365,1.223521 0.685542,1.7010112 0.456729,0.478237 1.030255,0.716308 1.719681,0.716308 0.658807,0 1.219488,-0.231649 1.681743,-0.69719 0.462257,-0.4644962 0.692861,-1.0333922 0.692861,-1.7050442 0,-0.677029 -0.23389,-1.2513014 -0.702419,-1.7234139"
       id="path30"
       style="fill:#4c4c4c;stroke-width:0.149356" />
    <path
       d="M 38.223498,7.7008776 C 38.112527,7.7782416 38.060103,7.81633 37.76647,7.81633 H 36.611056 V 6.8278945 h 1.119568 c 0.224482,0 0.26421,0.016879 0.356214,0.051529 0.0917,0.033607 0.164589,0.089762 0.219553,0.1669795 0.05496,0.077364 0.08185,0.1692194 0.08185,0.2745149 0,0.1771365 -0.05497,0.3037896 -0.164739,0.3799608 m 0.138901,0.9100231 c 0.30603,-0.109925 0.535738,-0.27123 0.688081,-0.484062 0.152493,-0.2140249 0.227618,-0.4786836 0.227618,-0.7968109 0,-0.3015488 -0.06826,-0.5638171 -0.20626,-0.7845652 C 38.933983,6.3247161 38.751321,6.1666981 38.525047,6.0714092 38.298624,5.9761203 37.918664,5.928028 37.38412,5.928028 h -1.692049 v 4.830159 h 0.918985 V 8.7129118 h 0.802038 l 1.08731,2.0452752 h 1.005163 z"
       id="path34"
       style="fill:#4c4c4c;stroke-width:0.149356" />
    <path
       d="m 31.572515,5.9269812 h 3.131687 v 0.8998681 h -2.218228 v 0.9885843 h 2.218228 v 0.8841852 h -2.218228 v 1.15422 h 2.218228 v 0.9034522 h -3.131687 z"
       id="path38"
       style="fill:#4c4c4c;stroke-width:0.149356" />
    <path
       d="m 26.720206,5.9269812 h 0.879854 l 2.072159,3.1782876 V 5.9269812 h 0.918985 V 10.75714 h -0.88314 L 27.639191,7.5890101 V 10.75714 h -0.918985 z"
       id="path42"
       style="fill:#4c4c4c;stroke-width:0.149356" />
    <use
       transform="translate(-18.678201)"
       id="use46"
       x="0"
       y="0"
       width="282"
       height="75"
       xlink:href="#path30" />
    <path
       d="m 16.026555,5.9268468 h 0.899867 l 1.116135,3.369014 1.13316,-3.369014 h 0.886425 l 0.813839,4.8303092 H 19.989406 L 19.470545,7.7065681 18.442829,10.757156 H 17.632426 L 16.618302,7.7065681 16.089284,10.757156 h -0.896581 z"
       id="path50"
       style="fill:#4c4c4c;stroke-width:0.149356" />
    <text
       xml:space="preserve"
       style="font-style:normal;font-weight:normal;font-size:10.5833px;line-height:1.25;font-family:sans-serif;fill:#000000;fill-opacity:1;stroke:none;stroke-width:0.264583"
       x="12.599207"
       y="30.868057"
       id="text1057"><tspan
         sodipodi:role="line"
         id="tspan1055"
         x="12.599207"
         y="30.868057"
         style="stroke-width:0.264583" /></text>
    <text
       xml:space="preserve"
       style="font-style:normal;font-variant:normal;font-weight:bold;font-stretch:normal;font-size:3.175px;line-height:1.25;font-family:sans-serif;-inkscape-font-specification:'sans-serif, Bold';font-variant-ligatures:normal;font-variant-caps:normal;font-variant-numeric:normal;font-variant-east-asian:normal;fill:#4c4c4c;fill-opacity:1;stroke:none;stroke-width:0.264583"
       x="2.6594357"
       y="20.331099"
       id="text1061"><tspan
         sodipodi:role="line"
         id="tspan1059"
         x="2.6594357"
         y="20.331099"
         style="font-style:normal;font-variant:normal;font-weight:bold;font-stretch:normal;font-size:3.175px;font-family:sans-serif;-inkscape-font-specification:'sans-serif, Bold';font-variant-ligatures:normal;font-variant-caps:normal;font-variant-numeric:normal;font-variant-east-asian:normal;fill:#4c4c4c;fill-opacity:1;stroke-width:0.264583">Redeem:</tspan></text>
    <text
       xml:space="preserve"
       style="font-style:normal;font-variant:normal;font-weight:normal;font-stretch:normal;font-size:3.175px;line-height:1.25;font-family:sans-serif;-inkscape-font-specification:'sans-serif, Normal';font-variant-ligatures:normal;font-variant-caps:normal;font-variant-numeric:normal;font-variant-east-asian:normal;white-space:pre;inline-size:44.0297;fill:#4c4c4c;fill-opacity:1;stroke:none;stroke-width:0.264583"
       x="3.8976805"
       y="30.290548"
       id="text1065"
       transform="translate(-1.0677827,-4.208135)"><tspan
         x="3.8976805"
         y="30.290548"><tspan
           style="font-style:normal;font-variant:normal;font-weight:normal;font-stretch:normal;font-size:3.175px;font-family:sans-serif;-inkscape-font-specification:'sans-serif, Normal';font-variant-ligatures:normal;font-variant-caps:normal;font-variant-numeric:normal;font-variant-east-asian:normal;fill:#4c4c4c;fill-opacity:1;stroke-width:0.264583">1. Open Monero Wallet </tspan></tspan><tspan
         x="3.8976805"
         y="34.259298"><tspan
           style="font-style:normal;font-variant:normal;font-weight:normal;font-stretch:normal;font-size:3.175px;font-family:sans-serif;-inkscape-font-specification:'sans-serif, Normal';font-variant-ligatures:normal;font-variant-caps:normal;font-variant-numeric:normal;font-variant-east-asian:normal;fill:#4c4c4c;fill-opacity:1;stroke-width:0.264583">application.
</tspan></tspan><tspan
         x="3.8976805"
         y="38.228046"><tspan
           style="font-style:normal;font-variant:normal;font-weight:normal;font-stretch:normal;font-size:3.175px;font-family:sans-serif;-inkscape-font-specification:'sans-serif, Normal';font-variant-ligatures:normal;font-variant-caps:normal;font-variant-numeric:normal;font-variant-east-asian:normal;fill:#4c4c4c;fill-opacity:1;stroke-width:0.264583">2. Choose 'Recover wallet </tspan></tspan><tspan
         x="3.8976805"
         y="42.196796"><tspan
           style="font-style:normal;font-variant:normal;font-weight:normal;font-stretch:normal;font-size:3.175px;font-family:sans-serif;-inkscape-font-specification:'sans-serif, Normal';font-variant-ligatures:normal;font-variant-caps:normal;font-variant-numeric:normal;font-variant-east-asian:normal;fill:#4c4c4c;fill-opacity:1;stroke-width:0.264583">from QR Code'.
</tspan></tspan><tspan
         x="3.8976805"
         y="46.165546"><tspan
           style="font-style:normal;font-variant:normal;font-weight:normal;font-stretch:normal;font-size:3.175px;font-family:sans-serif;-inkscape-font-specification:'sans-serif, Normal';font-variant-ligatures:normal;font-variant-caps:normal;font-variant-numeric:normal;font-variant-east-asian:normal;fill:#4c4c4c;fill-opacity:1;stroke-width:0.264583">3. Transfer funds into your </tspan></tspan><tspan
         x="3.8976805"
         y="50.134296"><tspan
           style="font-style:normal;font-variant:normal;font-weight:normal;font-stretch:normal;font-size:3.175px;font-family:sans-serif;-inkscape-font-specification:'sans-serif, Normal';font-variant-ligatures:normal;font-variant-caps:normal;font-variant-numeric:normal;font-variant-east-asian:normal;fill:#4c4c4c;fill-opacity:1;stroke-width:0.264583">private wallet.</tspan></tspan></text>
    <text
       xml:space="preserve"
       style="font-style:normal;font-weight:normal;font-size:10.5833px;line-height:1.25;font-family:sans-serif;fill:#4c4c4c;fill-opacity:1;stroke:none;stroke-width:0.264583"
       x="2.7978053"
       y="51.019161"
       id="text1075"><tspan
         sodipodi:role="line"
         id="tspan1073"
         x="2.7978053"
         y="51.019161"
         style="font-style:normal;font-variant:normal;font-weight:normal;font-stretch:normal;font-size:2.82222px;font-family:sans-serif;-inkscape-font-specification:'sans-serif, Normal';font-variant-ligatures:normal;font-variant-caps:normal;font-variant-numeric:normal;font-variant-east-asian:normal;fill:#4c4c4c;fill-opacity:1;stroke-width:0.264583">Help: xmr.gift/how</tspan></text>
    <rect
       style="fill:none;fill-opacity:1;stroke:#000000;stroke-width:0.141084;stroke-miterlimit:4;stroke-dasharray:0.282166, 0.141084;stroke-dashoffset:0;stroke-opacity:1"
       id="rect885"
       width="24.858917"
       height="24.858915"
       x="56.885418"
       y="22.754168" />
    <text
       xml:space="preserve"
       style="font-style:normal;font-variant:normal;font-weight:normal;font-stretch:normal;font-size:2.46944px;line-height:1.25;font-family:sans-serif;-inkscape-font-specification:'sans-serif, Normal';font-variant-ligatures:normal;font-variant-caps:normal;font-variant-numeric:normal;font-variant-east-asian:normal;fill:#000000;fill-opacity:1;stroke:none;stroke-width:0.264583"
       x="64.234459"
       y="35.970573"
       id="text891"><tspan
         sodipodi:role="line"
         id="tspan889"
         x="64.234459"
         y="35.970573"
         style="font-style:normal;font-variant:normal;font-weight:normal;font-stretch:normal;font-size:2.46944px;font-family:sans-serif;-inkscape-font-specification:'sans-serif, Normal';font-variant-ligatures:normal;font-variant-caps:normal;font-variant-numeric:normal;font-variant-east-asian:normal;stroke-width:0.264583">QR code</tspan></text>
  </g>
</svg>
